<?xml version="1.0" standalone="no"?><!DOCTYPE svg PUBLIC "-//W3C//DTD SVG 1.1//EN" "http://www.w3.org/Graphics/SVG/1.1/DTD/svg11.dtd"><svg t="1536895194982" class="icon" style="" viewBox="0 0 1024 1024" version="1.1" xmlns="http://www.w3.org/2000/svg" p-id="1317" xmlns:xlink="http://www.w3.org/1999/xlink" width="128" height="128"><defs><style type="text/css"></style></defs><path d="M939.80444445 830.57777778H157.01333333V120.60444445c0-5.00622222-4.096-9.10222222-9.10222222-9.10222223h-63.71555556c-5.00622222 0-9.10222222 4.096-9.10222222 9.10222223v782.7911111c0 5.00622222 4.096 9.10222222 9.10222222 9.10222223h855.6088889c5.00622222 0 9.10222222-4.096 9.10222222-9.10222223v-63.71555555c0-5.00622222-4.096-9.10222222-9.10222222-9.10222222z" p-id="1318"></path><path d="M277.39022222 655.01866667c3.52711111 3.52711111 9.216 3.52711111 12.85688889 0l157.35466667-156.55822222L592.78222222 644.55111111c3.52711111 3.52711111 9.32977778 3.52711111 12.85688889 0l313.344-313.23022222c3.52711111-3.52711111 3.52711111-9.32977778 0-12.85688889l-45.056-45.056c-3.52711111-3.52711111-9.32977778-3.52711111-12.85688889 0l-261.68888889 261.57511111L454.42844445 389.12c-3.52711111-3.52711111-9.32977778-3.52711111-12.8568889 0L232.448 596.992c-3.52711111 3.52711111-3.52711111 9.32977778 0 12.85688889l44.94222222 45.16977778z" p-id="1319"></path></svg>