<?xml version="1.0" standalone="no"?><!DOCTYPE svg PUBLIC "-//W3C//DTD SVG 1.1//EN" "http://www.w3.org/Graphics/SVG/1.1/DTD/svg11.dtd"><svg t="1536888511739" class="icon" style="" viewBox="0 0 1024 1024" version="1.1" xmlns="http://www.w3.org/2000/svg" p-id="1284" xmlns:xlink="http://www.w3.org/1999/xlink" width="128" height="128"><defs><style type="text/css"></style></defs><path d="M882.76803627 504.05281813c-71.56229867-142.8609472-213.6699584-231.56053333-370.76803627-231.56053333-157.17340693 0-299.2057376 88.69958613-370.76803627 231.56053333a17.85290987 17.85290987 0 0 0 0 15.89436374c71.52463467 142.8232832 213.5946304 231.56053333 370.76803627 231.56053333 157.09807787 0 299.1680736-88.69958613 370.76803627-231.56053333a17.85290987 17.85290987 0 0 0 0-15.89436374zM512 716.06554453c-140.67641387 0-268.24562773-77.9652416-334.94922347-204.06554453 66.70359573-126.137968 194.23514453-204.06554453 334.94922347-204.06554453s268.20796373 77.92757653 334.94922347 204.06554453c-66.74125973 126.10030293-194.2728096 204.06554453-334.94922347 204.06554453z m0-387.15203626A183.23714987 183.23714987 0 0 0 328.95117227 512a183.1994848 183.1994848 0 0 0 183.04882773 183.08649173 183.27481387 183.27481387 0 0 0 183.08649173-183.08649173A183.27481387 183.27481387 0 0 0 512 328.91350827z m0 330.73081386c-81.39269867 0-147.60665707-66.25162347-147.60665707-147.64432213s66.2139584-147.64432213 147.60665707-147.64432213c81.35503467 0 147.60665707 66.25162347 147.60665707 147.64432213s-66.25162347 147.64432213-147.60665707 147.64432213z m17.77758187-245.722336c0 9.792736-7.94718187 17.77758187-17.77758187 17.77758187a80.41342507 80.41342507 0 0 0-80.37576107 80.338096 17.7399168 17.7399168 0 0 1-35.47983466 0 116.0062528 116.0062528 0 0 1 115.81793173-115.85559467 17.7022528 17.7022528 0 0 1 17.81524587 17.7399168z" p-id="1285"></path></svg>
