<?xml version="1.0" standalone="no"?><!DOCTYPE svg PUBLIC "-//W3C//DTD SVG 1.1//EN" "http://www.w3.org/Graphics/SVG/1.1/DTD/svg11.dtd"><svg t="1536888524771" class="icon" style="" viewBox="0 0 1024 1024" version="1.1" xmlns="http://www.w3.org/2000/svg" p-id="1399" xmlns:xlink="http://www.w3.org/1999/xlink" width="128" height="128"><defs><style type="text/css"></style></defs><path d="M886.5344736 344.05458347c-6.70425707-9.2277696-20.9413888-10.4330304-31.8263904-1.9962112-3.76643627 2.9378208-5.38600427 4.67038187-9.03944853 8.70046933l-0.2636512 0.41430827c-60.41364587 74.61311253-359.28040427 370.69270827-670.23742507 0.4143072-0.11299307-0.15065707-0.11299307-0.3013152-0.26365013-0.4143072-0.3766432-0.6779584-0.90394453-1.20525973-1.35591787-1.77022614-8.43681813-10.8473376-22.899936-13.67216533-32.2030336-6.44060693-8.96411947 7.11856533-9.75507093 21.20503893-1.99621227 31.97704853v0.11299307c0.26365013 0.26365013 0.26365013 0.41430827 0.48963734 0.6779584v0.15065813a849.85879573 849.85879573 0 0 0 106.74081813 102.03277227l-83.2005888 67.94651947a18.49320427 18.49320427 0 0 0 23.31424427 28.73791253l88.77491413-72.35325013c0.6779584-0.56496533 1.16759573-1.09226667 1.73256107-1.619568 43.50234453 30.24448747 85.27212907 50.62090987 125.30935253 63.2384736l-25.27279147 92.1270432a18.7191904 18.7191904 0 0 0 13.031872 22.82460693 18.6815264 18.6815264 0 0 0 22.82460587-13.03187093l25.38578453-92.61668054a336.64411947 336.64411947 0 0 0 168.736368-8.70046933c0.15065707 0.11299307 0.15065707 0.3766432 0.15065707 0.52730133l47.8337472 111.44886507a18.53086933 18.53086933 0 0 0 34.0862528-14.53844693l-47.1557888-109.94228907c43.42701653-17.89057493 82.33430827-42.5984 116.5712192-68.5114848a22.22197653 22.22197653 0 0 0 2.82482667 4.03008747l63.65278186 67.00490986a18.56853333 18.56853333 0 0 0 26.139072 0.6779584 18.60619733 18.60619733 0 0 0 0.6779584-26.17673493l-63.61511786-67.00491093-1.20525974-1.20525974c40.41386667-33.82260267 72.4662432-67.11790293 95.44150827-88.62425706a20.07510827 20.07510827 0 0 0 2.67417067-3.35212907 16.19567787 16.19567787 0 0 0 1.24292373-1.88321813c4.48205973-7.8341888 4.70804587-16.57232213 0-22.862272z" p-id="1400"></path></svg>
