<?xml version="1.0" standalone="no"?><!DOCTYPE svg PUBLIC "-//W3C//DTD SVG 1.1//EN" "http://www.w3.org/Graphics/SVG/1.1/DTD/svg11.dtd"><svg class="icon" width="128px" height="128.00px" viewBox="0 0 1024 1024" version="1.1" xmlns="http://www.w3.org/2000/svg"><path d="M460.59520001 526.99591111a218.45333333 218.45333333 0 1 0 0-308.74737778 218.45333333 218.45333333 0 0 0 0 308.74737778z m-51.70062222 51.70062222a291.27111111 291.27111111 0 1 1 412.14862222 0 291.27111111 291.27111111 0 0 1-412.14862222 0z"  /><path d="M407.07413334 565.22524444a36.40888889 36.40888889 0 0 1 51.70062222 51.70062222l-291.27111111 291.27111111a36.40888889 36.40888889 0 0 1-51.70062222-51.70062222z"  /><path d="M422.36586667 747.26968888a36.40888889 36.40888889 0 0 1-51.70062222 51.70062223l-36.40888889-36.4088889a36.40888889 36.40888889 0 0 1 51.70062223-51.70062222zM349.54808889 856.49635555a36.40888889 36.40888889 0 0 1-51.70062222 51.70062222l-72.81777778-72.81777778a36.40888889 36.40888889 0 0 1 51.70062223-51.70062222z"  /></svg>
