<?xml version="1.0" standalone="no"?><!DOCTYPE svg PUBLIC "-//W3C//DTD SVG 1.1//EN" "http://www.w3.org/Graphics/SVG/1.1/DTD/svg11.dtd"><svg t="1536893731517" class="icon" style="" viewBox="0 0 1024 1024" version="1.1" xmlns="http://www.w3.org/2000/svg" p-id="1316" xmlns:xlink="http://www.w3.org/1999/xlink" width="128" height="128"><defs><style type="text/css"></style></defs><path d="M490.04 89.48a30.66000001 30.66000001 0 0 1 42.66000001 0 30.06000001 30.06000001 0 0 1 0 42.72L107.6 556.70000001a30.66000001 30.66000001 0 0 1-42.72 0 30.06000001 30.06000001 0 0 1 0-42.66000001L490.04 89.48z" p-id="1317"></path><path d="M490.64 88.88a30.06000001 30.06000001 0 0 1 42.66000001 0l425.15999998 425.16a30.18000001 30.18000001 0 1 1-42.71999998 42.66000001l-425.10000001-425.10000001a30.66000001 30.66000001 0 0 1 0-42.72zM692 187.52a29.46000001 29.46000001 0 0 1 30.06000001-30.06000001H842.30000001c16.62000001 0 30.06000001 13.44 30.05999999 30.00000002a29.46000001 29.46000001 0 0 1-30 30.11999998h-120.30000001A30.06000001 30.06000001 0 0 1 692 187.52z" p-id="1318"></path><path d="M812.30000001 186.92c0-16.62000001 13.50000001-30.06000001 30.05999999-30.06000001a29.46000001 29.46000001 0 0 1 30.05999999 30.00000002v120.29999999a30.06000001 30.06000001 0 0 1-30 30.06000001 29.46000001 29.46000001 0 0 1-30.12-30.00000002V186.85999999zM150.85999999 548.30000001a30.06000001 30.06000001 0 1 1 60.18000001-2e-8v360.78000001a30.06000001 30.06000001 0 1 1-60.17999999 0V548.30000001z" p-id="1319"></path><path d="M150.85999999 909.08a29.46000001 29.46000001 0 0 1 30.06000001-30.06000001h240.6c16.56 0 30 13.44 30 30.00000002a29.46000001 29.46000001 0 0 1-30 30.11999998h-240.6a30.06000001 30.06000001 0 0 1-30-30.05999999z m420.96000002 0a29.46000001 29.46000001 0 0 1 29.99999998-30.06000001h240.60000002c16.56 0 30 13.44 29.99999998 30.00000002a29.46000001 29.46000001 0 0 1-30 30.11999998h-240.59999998a30.06000001 30.06000001 0 0 1-30.00000002-30.05999999z" p-id="1320"></path><path d="M391.4 728.06000001a30.06000001 30.06000001 0 0 1 30.06000001-29.40000002 29.46000001 29.46000001 0 0 1 30.05999999 29.4v180.42000001a30.06000001 30.06000001 0 0 1-30 29.4 29.46000001 29.46000001 0 0 1-30.12-29.4V728z" p-id="1321"></path><path d="M391.4 728.66000001a29.46000001 29.46000001 0 0 1 29.46000001-30.00000002h180.41999999a30.06000001 30.06000001 0 0 1 29.4 30 29.46000001 29.46000001 0 0 1-29.4 30.06000001H420.8a30.06000001 30.06000001 0 0 1-29.46000001-30z" p-id="1322"></path><path d="M571.82000001 728.06000001a30.06000001 30.06000001 0 0 1 30-29.40000002 29.46000001 29.46000001 0 0 1 30.12 29.4v180.42000001a30.06000001 30.06000001 0 0 1-30.06000001 29.4 29.46000001 29.46000001 0 0 1-30.05999999-29.4V728z m270.59999998-209.82000001a30.66000001 30.66000001 0 0 0-30.11999998 30v360.84a30.06000001 30.06000001 0 1 0 60.12 0V548.30000001a30.66000001 30.66000001 0 0 0-30-30.06000001z" p-id="1323"></path></svg>
