<?xml version="1.0" standalone="no"?><!DOCTYPE svg PUBLIC "-//W3C//DTD SVG 1.1//EN" "http://www.w3.org/Graphics/SVG/1.1/DTD/svg11.dtd"><svg t="1536827647632" class="icon" style="" viewBox="0 0 1024 1024" version="1.1" xmlns="http://www.w3.org/2000/svg" p-id="1230" xmlns:xlink="http://www.w3.org/1999/xlink" width="128" height="128"><defs><style type="text/css"></style></defs><path d="M492.69921875 140.64453125a26.94726563 26.94726563 0 0 1 37.49414063 0 26.41992188 26.41992188 0 0 1 0 37.546875L156.5703125 551.28710938a26.94726563 26.94726563 0 0 1-37.546875 0 26.41992188 26.41992188 0 0 1 0-37.49414063L492.69921875 140.64453125z" fill="#333333" p-id="1231"></path><path d="M493.2265625 140.1171875a26.41992188 26.41992188 0 0 1 37.49414063 0l373.67578124 373.67578125a26.52539063 26.52539063 0 1 1-37.54687499 37.49414063l-373.62304688-373.62304688a26.94726563 26.94726563 0 0 1 0-37.546875zM670.203125 226.8125a25.89257813 25.89257813 0 0 1 26.41992188-26.41992188H802.30273438c14.60742188 0 26.41992188 11.8125 26.41992187 26.36718751a25.89257813 25.89257813 0 0 1-26.3671875 26.47265624h-105.73242188A26.41992188 26.41992188 0 0 1 670.203125 226.8125z" fill="#333333" p-id="1232"></path><path d="M775.93554688 226.28515625c0-14.60742188 11.86523438-26.41992188 26.41992187-26.41992188a25.89257813 25.89257813 0 0 1 26.41992187 26.36718751v105.73242187a26.41992188 26.41992188 0 0 1-26.3671875 26.41992188 25.89257813 25.89257813 0 0 1-26.47265625-26.36718751V226.23242187zM194.59179687 543.90429688a26.41992188 26.41992188 0 1 1 52.89257813-1e-8v317.09179688a26.41992188 26.41992188 0 1 1-52.89257812 0V543.90429688z" fill="#333333" p-id="1233"></path><path d="M194.59179687 860.99609375a25.89257813 25.89257813 0 0 1 26.41992188-26.41992188h211.46484375c14.5546875 0 26.3671875 11.8125 26.3671875 26.36718751a25.89257813 25.89257813 0 0 1-26.3671875 26.47265624h-211.46484375a26.41992188 26.41992188 0 0 1-26.3671875-26.41992187z m369.98437501 0a25.89257813 25.89257813 0 0 1 26.36718749-26.41992188h211.46484376c14.5546875 0 26.3671875 11.8125 26.36718749 26.36718751a25.89257813 25.89257813 0 0 1-26.3671875 26.47265624h-211.46484374a26.41992188 26.41992188 0 0 1-26.36718751-26.41992187z" fill="#333333" p-id="1234"></path><path d="M406.00390625 701.89648438a26.41992188 26.41992188 0 0 1 26.41992188-25.83984376 25.89257813 25.89257813 0 0 1 26.41992187 25.83984375v158.57226563a26.41992188 26.41992188 0 0 1-26.3671875 25.83984375 25.89257813 25.89257813 0 0 1-26.47265625-25.83984375V701.84375z" fill="#333333" p-id="1235"></path><path d="M406.00390625 702.42382813a25.89257813 25.89257813 0 0 1 25.89257813-26.36718751h158.57226562a26.41992188 26.41992188 0 0 1 25.83984375 26.3671875 25.89257813 25.89257813 0 0 1-25.83984375 26.41992188H431.84375a26.41992188 26.41992188 0 0 1-25.89257813-26.3671875z" fill="#333333" p-id="1236"></path><path d="M564.57617188 701.89648438a26.41992188 26.41992188 0 0 1 26.3671875-25.83984376 25.89257813 25.89257813 0 0 1 26.47265625 25.83984375v158.57226563a26.41992188 26.41992188 0 0 1-26.41992188 25.83984375 25.89257813 25.89257813 0 0 1-26.41992187-25.83984375V701.84375z m237.83203124-184.41210938a26.94726563 26.94726563 0 0 0-26.47265624 26.3671875v317.14453125a26.41992188 26.41992188 0 1 0 52.83984375 0V543.90429688a26.94726563 26.94726563 0 0 0-26.3671875-26.41992188z" fill="#333333" p-id="1237"></path></svg>