<?xml version="1.0" standalone="no"?><!DOCTYPE svg PUBLIC "-//W3C//DTD SVG 1.1//EN" "http://www.w3.org/Graphics/SVG/1.1/DTD/svg11.dtd"><svg t="1536995645874" class="icon" style="" viewBox="0 0 1024 1024" version="1.1" xmlns="http://www.w3.org/2000/svg" p-id="1579" xmlns:xlink="http://www.w3.org/1999/xlink" width="200" height="200"><defs><style type="text/css"></style></defs><path d="M860.94946 725.775828 860.94946 260.630972c0-17.353227-12.960173-31.521924-28.995381-31.521924L186.680726 229.109048c-16.035208 0-28.995381 14.059204-28.995381 31.521924l0 465.144856L62.569034 725.775828l0 38.442544c0 17.35425 12.960173 31.521924 28.996404 31.521924l838.689481 0c16.035208 0 28.995381-14.059204 28.995381-31.521924l0-38.442544L860.94946 725.775828 860.94946 725.775828zM546.167171 739.176023l-70.51296 0c-3.954055 0-7.139607-4.612041-7.139607-10.214642 0-5.711072 3.185552-10.324136 7.139607-10.324136l70.51296 0c3.953032 0 7.138584 4.612041 7.138584 10.324136C553.305755 734.563982 550.120203 739.176023 546.167171 739.176023L546.167171 739.176023zM801.310152 687.555341 217.324654 687.555341 217.324654 294.02043l583.985498 0L801.310152 687.555341 801.310152 687.555341z" p-id="1580"></path></svg>