<?xml version="1.0" standalone="no"?><!DOCTYPE svg PUBLIC "-//W3C//DTD SVG 1.1//EN" "http://www.w3.org/Graphics/SVG/1.1/DTD/svg11.dtd"><svg class="icon" width="128px" height="128.00px" viewBox="0 0 1024 1024" version="1.1" xmlns="http://www.w3.org/2000/svg"><path d="M660.97460938 90.125L90.125 660.97460938l0-1e-8L363.02539062 933.875 933.875 363.02539062 660.97460938 90.125zM363.02539062 859.30529786L164.69470214 660.97460938l49.43847658-49.43847657 95.08666991 95.08666992 37.32604981-37.32604981L251.45922852 574.21008301l52.40478515-52.40478516 95.08666992 95.08666993 37.32604981-37.32604981L341.19006347 484.47924805l52.40478517-52.40478516 95.08666991 95.08666992 37.32604981-37.32604981L430.92089844 394.74841308l53.64074707-53.64074706L579.56591797 436.27673339l37.32604981-37.3260498L521.80529786 303.86401367l53.64074706-53.64074707 95.08666992 95.08666993 37.32604981-37.32604981L612.68969727 212.97961425l48.28491211-48.2849121 198.33068848 198.33068848L363.02539062 859.30529786z" /></svg>
