<?xml version="1.0" standalone="no"?><!DOCTYPE svg PUBLIC "-//W3C//DTD SVG 1.1//EN" "http://www.w3.org/Graphics/SVG/1.1/DTD/svg11.dtd"><svg t="1536888984781" class="icon" style="" viewBox="0 0 1024 1024" version="1.1" xmlns="http://www.w3.org/2000/svg" p-id="2110" xmlns:xlink="http://www.w3.org/1999/xlink" width="128" height="128"><defs><style type="text/css"></style></defs><path d="M91.34200625 144.51443563l0 734.47034906 839.39536969 0L930.73737594 144.51443563 91.34200625 144.51443563 91.34200625 144.51443563zM406.11514999 616.67367125L406.11514999 459.28757937l209.85004126 0 0 157.38705188L406.11514999 616.67463031 406.11514999 616.67367125zM615.96519125 669.13570156l0 157.38897L406.11514999 826.5246725 406.11514999 669.13570156 615.96519125 669.13570156 615.96519125 669.13570156zM615.96519125 249.43753719l0 157.38897L406.11514999 406.82650719 406.11514999 249.43753719 615.96519125 249.43753719 615.96519125 249.43753719zM353.65311875 249.43753719l0 157.38897L143.80403655 406.82650719 143.80403655 249.43753719 353.65311875 249.43753719 353.65311875 249.43753719zM143.80403655 459.28757937l209.85004126 0 0 157.38705188L143.80403655 616.67463031 143.80403655 459.28757937 143.80403655 459.28757937zM668.4272225 459.28757937l209.85004125 0 0 157.38705188L668.4272225 616.67463031 668.4272225 459.28757937 668.4272225 459.28757937zM668.4272225 406.82650719L668.4272225 249.43753719l209.85004125 0 0 157.38897L668.4272225 406.82650719 668.4272225 406.82650719zM143.80403655 669.13570156l209.85004126 0 0 157.38897L143.80403655 826.5246725 143.80403655 669.13570156 143.80403655 669.13570156zM668.4272225 826.5246725L668.4272225 669.13570156l209.85004125 0 0 157.38897L668.4272225 826.5246725 668.4272225 826.5246725zM668.4272225 826.5246725" p-id="2111"></path></svg>